<svg width="22" height="22" viewBox="0 0 22 22" fill="none" xmlns="http://www.w3.org/2000/svg">
<path fill-rule="evenodd" clip-rule="evenodd" d="M3.5 11C3.5 9.01088 4.29018 7.10322 5.6967 5.6967C7.10322 4.29018 9.01088 3.5 11 3.5C16.05 3.5 18.917 7.667 18.51 11.334C18.397 12.343 18.108 12.892 17.887 13.184C17.627 13.528 17.155 13.854 16.703 13.838C16.373 13.826 16.471 13.363 16.493 13.149L16.993 8.149C17.0221 7.85877 16.9659 7.56636 16.8314 7.30756C16.6969 7.04875 16.4898 6.83478 16.2356 6.69184C15.9813 6.5489 15.6909 6.4832 15.3999 6.50276C15.1088 6.52232 14.8298 6.62631 14.597 6.802C13.6005 5.95853 12.3365 5.49702 11.031 5.5C8.008 5.5 5.5 7.948 5.5 11C5.5 14.056 8.018 16.5 11.038 16.5C12.1411 16.4993 13.2189 16.17 14.134 15.554C14.2967 15.7767 14.4913 15.978 14.718 16.158C15.826 17.036 17.3 17.027 18.671 16.342C19.3058 16.0241 19.8573 15.5617 20.281 14.992C20.866 14.218 21.327 13.142 21.491 11.666C22.083 6.333 17.949 0.5 11 0.5C5.201 0.5 0.5 5.201 0.5 11C0.5 16.799 5.201 21.5 11 21.5C12.674 21.5 14.26 21.107 15.668 20.408C16.0243 20.2308 16.2957 19.9194 16.4223 19.5422C16.549 19.1649 16.5207 18.7528 16.3435 18.3965C16.1663 18.0402 15.8549 17.7688 15.4776 17.6422C15.1004 17.5155 14.6883 17.5438 14.332 17.721C13.1884 18.2881 11.919 18.5539 10.6439 18.4933C9.3689 18.4327 8.13042 18.0477 7.04576 17.3747C5.9611 16.7017 5.06617 15.763 4.44568 14.6475C3.82519 13.5319 3.4997 12.2765 3.5 11ZM8.5 11C8.5 9.634 9.635 8.5 11.03 8.5C12.639 8.5 13.838 9.981 13.514 11.516C13.274 12.659 12.234 13.5 11.038 13.5C9.638 13.5 8.5 12.363 8.5 11Z" fill="#201D1D"/>
</svg>
