<svg width="37" height="38" viewBox="0 0 37 38" fill="none" xmlns="http://www.w3.org/2000/svg">
<path d="M37 19C37 8.50547 28.7184 0 18.5 0C8.28164 0 0 8.50547 0 19C0 27.9063 5.97637 35.3875 14.034 37.4434V24.8039H10.2184V19H14.034V16.4988C14.034 10.0344 16.8813 7.03594 23.0672 7.03594C24.2379 7.03594 26.2613 7.27344 27.0924 7.51094V12.7656C26.6588 12.7211 25.9 12.6914 24.9533 12.6914C21.9182 12.6914 20.7475 13.8715 20.7475 16.9367V19H26.7889L25.7482 24.8039H20.7402V37.859C29.9035 36.7234 37 28.7152 37 19Z" fill="#00556F"/>
</svg>
