<svg width="42" height="38" viewBox="0 0 42 38" fill="none" xmlns="http://www.w3.org/2000/svg">
<path d="M18.2911 15.366C17.7581 15.6854 17.3005 16.0958 16.9444 16.5737C16.5883 17.0516 16.3407 17.5877 16.2158 18.1514C15.9635 19.2898 16.2261 20.4714 16.9458 21.4363C17.6654 22.4012 18.7832 23.0703 20.0533 23.2965C21.3234 23.5226 22.6416 23.2873 23.7181 22.6422C24.7945 21.9971 25.541 20.9952 25.7933 19.8568C26.0456 18.7184 25.7831 17.5368 25.0634 16.5719C24.3437 15.607 23.2259 14.9379 21.9559 14.7117C20.6858 14.4856 19.3675 14.7209 18.2911 15.366ZM31.3141 9.75508C30.8382 9.32852 30.2616 8.99219 29.6301 8.7707C27.9737 8.18828 24.3587 8.21289 22.025 8.2375C21.6498 8.2375 21.302 8.2457 21 8.2457C20.698 8.2457 20.3411 8.2457 19.9567 8.2375C17.623 8.21289 14.0263 8.18008 12.3699 8.7707C11.7384 8.99219 11.171 9.32852 10.6859 9.75508C10.2009 10.1816 9.83482 10.6984 9.58772 11.2645C8.93795 12.7492 8.97455 15.9977 8.99286 18.0895C8.99286 18.4258 9.00201 18.7375 9.00201 19C9.00201 19.2625 9.00201 19.5742 8.99286 19.9105C8.97455 22.0023 8.93795 25.2508 9.58772 26.7355C9.83482 27.3016 10.21 27.8102 10.6859 28.2449C11.1618 28.6797 11.7384 29.0078 12.3699 29.2293C14.0263 29.8117 17.6413 29.7871 19.975 29.7625C20.3502 29.7625 20.698 29.7543 21 29.7543C21.302 29.7543 21.6589 29.7543 22.0433 29.7625C24.377 29.7871 27.9737 29.8199 29.6301 29.2293C30.2616 29.0078 30.829 28.6715 31.3141 28.2449C31.7991 27.8184 32.1652 27.3016 32.4123 26.7355C33.0712 25.259 33.0346 22.027 33.0071 19.927C33.0071 19.5824 32.998 19.2625 32.998 18.9918C32.998 18.7211 32.998 18.4094 33.0071 18.0566C33.0346 15.9648 33.0712 12.7328 32.4123 11.248C32.1652 10.682 31.79 10.1734 31.3141 9.73867V9.75508ZM25.1732 13.4055C26.8286 14.3975 27.9764 15.9384 28.3643 17.6891C28.7522 19.4398 28.3483 21.2569 27.2415 22.7406C26.1347 24.2244 24.4157 25.2533 22.4625 25.601C20.5094 25.9486 18.4821 25.5866 16.8268 24.5945C16.0071 24.1038 15.3033 23.4733 14.7556 22.7388C14.2078 22.0043 13.8268 21.1803 13.6343 20.3138C13.4418 19.4473 13.4416 18.5554 13.6337 17.6888C13.8258 16.8223 14.2065 15.9982 14.7539 15.2635C15.3013 14.5288 16.0049 13.898 16.8243 13.407C17.6437 12.916 18.563 12.5745 19.5297 12.4019C20.4963 12.2294 21.4915 12.2292 22.4582 12.4014C23.425 12.5736 24.3444 12.9148 25.1641 13.4055H25.1732ZM27.8455 13.2988C27.5618 13.1266 27.333 12.8805 27.1958 12.5934C27.0585 12.3062 27.031 11.9945 27.0951 11.6828C27.1592 11.3711 27.333 11.1004 27.571 10.8789C27.8089 10.6574 28.1292 10.5098 28.4679 10.4523C28.8065 10.3949 29.1634 10.4195 29.4837 10.5426C29.804 10.6656 30.0786 10.8625 30.2708 11.1168C30.4629 11.3711 30.5636 11.6746 30.5636 11.9863C30.5636 12.1914 30.5179 12.3965 30.4355 12.5852C30.3531 12.7738 30.2158 12.9461 30.0603 13.0938C29.9047 13.2414 29.7033 13.3562 29.4929 13.4383C29.2824 13.5203 29.0536 13.5613 28.8248 13.5613C28.477 13.5613 28.1384 13.4711 27.8547 13.2988H27.8455ZM41.5 5.875C41.5 2.9793 38.8734 0.625 35.6429 0.625H6.35714C3.12656 0.625 0.5 2.9793 0.5 5.875V32.125C0.5 35.0207 3.12656 37.375 6.35714 37.375H35.6429C38.8734 37.375 41.5 35.0207 41.5 32.125V5.875ZM33.1719 29.9102C31.4605 31.4441 29.383 31.9281 27.0402 32.0348C24.6241 32.1578 17.3759 32.1578 14.9598 32.0348C12.617 31.9281 10.5395 31.4441 8.82812 29.9102C7.11674 28.3762 6.57679 26.5141 6.46696 24.4141C6.32969 22.2484 6.32969 15.7516 6.46696 13.5859C6.58594 11.4859 7.11674 9.62383 8.82812 8.08984C10.5395 6.55586 12.6261 6.07187 14.9598 5.97344C17.3759 5.85039 24.6241 5.85039 27.0402 5.97344C29.383 6.08008 31.4605 6.55586 33.1719 8.08984C34.8833 9.62383 35.4232 11.4859 35.533 13.5859C35.6703 15.7434 35.6703 22.232 35.533 24.4059C35.4141 26.5059 34.8833 28.368 33.1719 29.902V29.9102Z" fill="#00556F"/>
</svg>
