<svg width="21" height="21" viewBox="0 0 21 21" fill="none" xmlns="http://www.w3.org/2000/svg">
<path d="M5.85698 0.444971C7.11998 1.36597 8.07598 2.65997 8.88999 3.84897L9.52798 4.78697C9.72611 5.07653 9.81676 5.42625 9.78425 5.7756C9.75175 6.12494 9.59813 6.45193 9.34999 6.69997L7.99398 8.05597L8.13698 8.35997C8.48698 9.06897 9.09098 10.09 9.99998 11C10.6287 11.617 11.3361 12.1483 12.104 12.58L12.471 12.777L12.798 12.939L12.944 13.006L14.299 11.65C14.5478 11.4009 14.8763 11.2473 15.2269 11.2161C15.5776 11.1848 15.928 11.2779 16.217 11.479L17.231 12.182C18.383 12.992 19.586 13.915 20.521 15.113C20.6826 15.3209 20.7854 15.5684 20.8187 15.8296C20.8519 16.0908 20.8144 16.3562 20.71 16.598C19.873 18.551 17.755 20.214 15.552 20.132L15.252 20.116L15.019 20.096L14.761 20.066L14.48 20.028L14.175 19.977L13.849 19.913L13.503 19.836L13.137 19.742L12.752 19.632L12.35 19.502C10.504 18.876 8.16098 17.646 5.75698 15.242C3.35298 12.838 2.12398 10.496 1.49798 8.64997L1.36798 8.24797L1.25798 7.86297L1.16398 7.49697L1.08598 7.15097C1.06348 7.0426 1.04248 6.93392 1.02298 6.82497L0.972985 6.51997L0.932984 6.23897L0.903985 5.98097L0.883984 5.74797L0.867985 5.44797C0.786985 3.25197 2.46798 1.11897 4.41198 0.285971C4.64596 0.184938 4.90219 0.146472 5.15551 0.174347C5.40884 0.202222 5.65057 0.29548 5.85698 0.444971ZM4.92998 2.25297C3.85798 2.81297 2.81998 4.09297 2.86698 5.37397L2.88698 5.70197L2.90898 5.90697L2.93798 6.13697L2.97798 6.38997L3.02898 6.66697L3.09398 6.96497L3.17398 7.28497L3.26998 7.62397L3.38398 7.98197C3.42598 8.10397 3.47065 8.22897 3.51798 8.35697L3.67198 8.74897L3.84798 9.15597C4.47598 10.538 5.49998 12.156 7.17298 13.828C8.84498 15.5 10.463 16.525 11.845 17.153L12.252 17.329L12.644 17.483C12.772 17.531 12.897 17.5756 13.019 17.617L13.377 17.731L13.717 17.827L14.036 17.907L14.334 17.972L14.611 18.023L14.865 18.063L15.095 18.093L15.299 18.113L15.627 18.133C16.891 18.18 18.181 17.148 18.739 16.09C18.027 15.255 17.143 14.57 16.168 13.88L15.42 13.359L15.23 13.558L14.824 14.001L14.609 14.227C14.023 14.824 13.339 15.331 12.519 15L12.293 14.905L12.017 14.781L11.863 14.708L11.525 14.539L11.154 14.339C10.216 13.8151 9.35262 13.1677 8.58698 12.414C7.8333 11.6483 7.18585 10.785 6.66198 9.84697L6.46198 9.47697L6.29198 9.13797L6.09598 8.70797L5.99998 8.47997C5.68898 7.71097 6.11698 7.06197 6.66398 6.49997L6.88798 6.27997L7.44498 5.76697L7.64498 5.57697L7.17198 4.88397C6.46898 3.86397 5.78198 2.94397 4.92898 2.25197L4.92998 2.25297ZM13.993 4.03997L14.109 4.05297C14.8369 4.18137 15.5055 4.53691 16.0189 5.06865C16.5323 5.60039 16.8642 6.28101 16.967 7.01297C17.0036 7.26615 16.9419 7.52375 16.7944 7.73277C16.6469 7.9418 16.4249 8.08635 16.1741 8.13669C15.9233 8.18704 15.6627 8.13934 15.446 8.00342C15.2293 7.8675 15.0729 7.65369 15.009 7.40597L14.986 7.29097C14.9458 7.00407 14.8233 6.73496 14.6334 6.51616C14.4435 6.29735 14.1944 6.13821 13.916 6.05797L13.761 6.02297C13.5099 5.97847 13.2853 5.83971 13.1331 5.63508C12.9809 5.43045 12.9126 5.17541 12.9423 4.92212C12.9719 4.66883 13.0972 4.43643 13.2925 4.27245C13.4878 4.10848 13.7384 4.02531 13.993 4.03997ZM14 0.999971C15.5913 0.999971 17.1174 1.63211 18.2426 2.75733C19.3678 3.88255 20 5.40867 20 6.99997C19.9997 7.25485 19.9021 7.5 19.7271 7.68534C19.5522 7.87068 19.313 7.98221 19.0586 7.99714C18.8041 8.01208 18.5536 7.9293 18.3582 7.76571C18.1627 7.60212 18.0371 7.37007 18.007 7.11697L18 6.99997C17.9999 5.98453 17.6136 5.00714 16.9194 4.266C16.2253 3.52487 15.2752 3.07548 14.262 3.00897L14 2.99997C13.7348 2.99997 13.4804 2.89461 13.2929 2.70708C13.1053 2.51954 13 2.26519 13 1.99997C13 1.73475 13.1053 1.4804 13.2929 1.29286C13.4804 1.10533 13.7348 0.999971 14 0.999971Z" fill="#201D1D"/>
</svg>
