<svg width="41" height="38" viewBox="0 0 41 38" fill="none" xmlns="http://www.w3.org/2000/svg">
<path d="M5.85714 0.625C2.62656 0.625 0 2.9793 0 5.875V32.125C0 35.0207 2.62656 37.375 5.85714 37.375H35.1429C38.3734 37.375 41 35.0207 41 32.125V5.875C41 2.9793 38.3734 0.625 35.1429 0.625H5.85714ZM33.0471 7.51562L23.5475 17.2445L34.7219 30.4844H25.9728L19.1272 22.4535L11.2842 30.4844H6.93705L17.0955 20.0746L6.37879 7.51562H15.3475L21.5433 14.8574L28.7 7.51562H33.0471ZM29.5877 28.1547L14.0388 9.72227H11.4489L27.1717 28.1547H29.5786H29.5877Z" fill="#00556F"/>
</svg>
