<svg width="52" height="42" viewBox="0 0 52 42" fill="none" xmlns="http://www.w3.org/2000/svg">
<path d="M50.5302 6.57158C49.9414 3.98486 48.2064 1.94764 46.0036 1.25628C42.0108 0 26.0001 0 26.0001 0C26.0001 0 9.98943 0 5.99652 1.25628C3.79368 1.94775 2.05874 3.98486 1.4699 6.57158C0.400024 11.2602 0.400024 21.0424 0.400024 21.0424C0.400024 21.0424 0.400024 30.8247 1.4699 35.5133C2.05874 38.1 3.79368 40.0524 5.99652 40.7437C9.98943 42 26.0001 42 26.0001 42C26.0001 42 42.0107 42 46.0036 40.7437C48.2064 40.0524 49.9414 38.1 50.5302 35.5133C51.6001 30.8247 51.6001 21.0424 51.6001 21.0424C51.6001 21.0424 51.6001 11.2602 50.5302 6.57158ZM20.7636 29.924V12.1609L34.1454 21.0427L20.7636 29.924Z" fill="#00556F"/>
</svg>
